<svg width="48" height="48" viewBox="0 0 48 48" fill="none" xmlns="http://www.w3.org/2000/svg">
<path d="M47.25 24C47.25 36.8406 36.8406 47.25 24 47.25C11.1594 47.25 0.749998 36.8406 0.749999 24C0.750001 11.1594 11.1594 0.749999 24 0.749999C36.8406 0.75 47.25 11.1594 47.25 24Z" stroke="white" stroke-width="1.5"/>
<path d="M24.5267 29.5679C24.448 29.4895 24.3856 29.3963 24.343 29.2938C24.3004 29.1912 24.2785 29.0813 24.2785 28.9702C24.2785 28.8592 24.3004 28.7492 24.343 28.6466C24.3856 28.5441 24.448 28.4509 24.5267 28.3726L28.1471 24.7522L17.8111 24.7522C17.5874 24.7522 17.3727 24.6633 17.2145 24.505C17.0563 24.3468 16.9674 24.1322 16.9674 23.9084C16.9674 23.6846 17.0563 23.47 17.2145 23.3118C17.3727 23.1536 17.5874 23.0647 17.8111 23.0647L28.1471 23.0647L24.5267 19.4429C24.3682 19.2844 24.2791 19.0694 24.2791 18.8452C24.2791 18.621 24.3682 18.4061 24.5267 18.2476C24.6852 18.089 24.9002 18 25.1243 18C25.3485 18 25.5635 18.089 25.722 18.2476L30.7845 23.3101C30.8631 23.3884 30.9256 23.4816 30.9681 23.5841C31.0107 23.6867 31.0327 23.7967 31.0327 23.9077C31.0327 24.0188 31.0107 24.1287 30.9681 24.2313C30.9256 24.3338 30.8631 24.427 30.7845 24.5054L25.722 29.5679C25.6436 29.6465 25.5505 29.7089 25.4479 29.7515C25.3453 29.7941 25.2354 29.816 25.1243 29.816C25.0133 29.816 24.9033 29.7941 24.8008 29.7515C24.6982 29.7089 24.6051 29.6465 24.5267 29.5679Z" fill="white"/>
</svg>
