<svg width="48" height="48" viewBox="0 0 48 48" fill="none" xmlns="http://www.w3.org/2000/svg">
<path d="M0.750001 24C0.750002 36.8406 11.1594 47.25 24 47.25C36.8406 47.25 47.25 36.8406 47.25 24C47.25 11.1594 36.8406 0.749999 24 0.749999C11.1594 0.75 0.750002 11.1594 0.750001 24Z" stroke="white" stroke-width="1.5"/>
<path d="M23.4733 29.5679C23.552 29.4895 23.6144 29.3963 23.657 29.2938C23.6996 29.1912 23.7215 29.0813 23.7215 28.9702C23.7215 28.8592 23.6996 28.7492 23.657 28.6466C23.6144 28.5441 23.552 28.4509 23.4733 28.3726L19.8529 24.7522L30.1889 24.7522C30.4126 24.7522 30.6273 24.6633 30.7855 24.505C30.9437 24.3468 31.0326 24.1322 31.0326 23.9084C31.0326 23.6846 30.9437 23.47 30.7855 23.3118C30.6273 23.1536 30.4126 23.0647 30.1889 23.0647L19.8529 23.0647L23.4733 19.4429C23.6318 19.2844 23.7209 19.0694 23.7209 18.8452C23.7209 18.621 23.6318 18.4061 23.4733 18.2476C23.3148 18.089 23.0998 18 22.8757 18C22.6515 18 22.4365 18.089 22.278 18.2476L17.2155 23.3101C17.1369 23.3884 17.0744 23.4816 17.0319 23.5841C16.9893 23.6867 16.9673 23.7967 16.9673 23.9077C16.9673 24.0188 16.9893 24.1287 17.0319 24.2313C17.0744 24.3338 17.1369 24.427 17.2155 24.5054L22.278 29.5679C22.3564 29.6465 22.4495 29.7089 22.5521 29.7515C22.6547 29.7941 22.7646 29.816 22.8757 29.816C22.9867 29.816 23.0967 29.7941 23.1992 29.7515C23.3018 29.7089 23.3949 29.6465 23.4733 29.5679Z" fill="white"/>
</svg>
