<svg width="467" height="40" viewBox="0 0 467 40" fill="none" xmlns="http://www.w3.org/2000/svg">
<g clip-path="url(#clip0_1888_251)">
<path d="M311.032 29.7101V20.72H314.224L314.703 17.2154H311.032V14.9782C311.032 13.9639 311.329 13.2726 312.87 13.2726L314.832 13.2719V10.1372C314.493 10.0955 313.328 10 311.972 10C309.141 10 307.202 11.6329 307.202 14.6311V17.2154H304V20.72H307.202V29.7101H311.032Z" fill="#008C4B"/>
<path d="M361 8H349C345.7 8 343 10.7002 343 13.9999V26.0001C343 29.2989 345.7 32 349 32H361C364.3 32 367 29.2989 367 26.0001V13.9999C367 10.7002 364.3 8 361 8ZM365 26.0001C365 28.2051 363.206 30 361 30H349C346.795 30 345 28.2051 345 26.0001V13.9999C345 11.7943 346.795 10 349 10H361C363.206 10 365 11.7943 365 13.9999V26.0001Z" fill="#008C4B"/>
<path d="M361.501 14.9992C362.329 14.9992 363.001 14.3278 363.001 13.4996C363.001 12.6714 362.329 12 361.501 12C360.673 12 360.001 12.6714 360.001 13.4996C360.001 14.3278 360.673 14.9992 361.501 14.9992Z" fill="#008C4B"/>
<path d="M355 14C351.686 14 349 16.6858 349 19.9999C349 23.3127 351.686 26.0003 355 26.0003C358.314 26.0003 361 23.3127 361 19.9999C361 16.6858 358.314 14 355 14ZM355 24.0002C352.791 24.0002 351 22.2093 351 19.9999C351 17.7904 352.791 16 355 16C357.209 16 359 17.7904 359 19.9999C359 22.2093 357.209 24.0002 355 24.0002Z" fill="#008C4B"/>
<path d="M411.4 29.2744V22.2151C411.4 18.7457 410.61 16.0955 406.326 16.0955C404.26 16.0955 402.883 17.1556 402.322 18.1675H402.271V16.4087H398.217V29.2744H402.45V22.8897C402.45 21.2032 402.781 19.589 404.974 19.589C407.142 19.589 407.167 21.4923 407.167 22.9861V29.2503H411.4V29.2744Z" fill="#008C4B"/>
<path d="M391.332 16.4087H395.565V29.2744H391.332V16.4087Z" fill="#008C4B"/>
<path d="M393.448 10C392.096 10 391 11.036 391 12.3129C391 13.5899 392.096 14.65 393.448 14.65C394.799 14.65 395.896 13.5899 395.896 12.3129C395.896 11.036 394.799 10 393.448 10Z" fill="#008C4B"/>
<path d="M448.811 18.3155L456.825 9H454.926L447.968 17.0885L442.41 9H436L444.404 21.2313L436 31H437.899L445.247 22.4583L451.117 31H457.527L448.811 18.3155H448.811ZM446.21 21.339L445.359 20.1211L438.583 10.4296H441.5L446.968 18.2509L447.82 19.4689L454.927 29.6354H452.01L446.21 21.3395V21.339Z" fill="#008C4B"/>
</g>
<defs>
<clipPath id="clip0_1888_251">
<rect width="178" height="40" fill="white" transform="translate(289)"/>
</clipPath>
</defs>
</svg>
