<svg width="34" height="34" viewBox="0 0 34 34" fill="none" xmlns="http://www.w3.org/2000/svg">
<path d="M2.12498 16.2916C2.2533 16.2917 2.3792 16.2567 2.48906 16.1904L12.7946 10.0066L20.2484 13.3946C20.3596 13.4452 20.4821 13.4662 20.6039 13.4556C20.7256 13.4449 20.8425 13.4029 20.9433 13.3336L30.838 6.51665L30.4838 8.27615C30.4469 8.46034 30.4847 8.65166 30.5888 8.80801C30.693 8.96436 30.8549 9.07294 31.0391 9.10985C31.0858 9.11892 31.1333 9.12342 31.1808 9.12331C31.344 9.12318 31.5021 9.06672 31.6285 8.96347C31.7548 8.86023 31.8416 8.71652 31.8743 8.55665L32.5684 5.08581C32.6061 4.90181 32.5691 4.71039 32.4656 4.55365C32.3621 4.39691 32.2006 4.28768 32.0166 4.24998L28.5458 3.55581C28.4547 3.53721 28.3607 3.53674 28.2694 3.55444C28.178 3.57214 28.0911 3.60765 28.0135 3.65896C27.9359 3.71026 27.8691 3.77635 27.817 3.85345C27.765 3.93055 27.7286 4.01715 27.71 4.10831C27.6914 4.19947 27.6909 4.2934 27.7086 4.38474C27.7263 4.47608 27.7618 4.56304 27.8131 4.64066C27.8644 4.71827 27.9305 4.78502 28.0076 4.83709C28.0847 4.88916 28.1713 4.92554 28.2625 4.94415L30.0935 5.31106L20.4708 11.9389L13.0432 8.56373C12.9387 8.51618 12.8242 8.49476 12.7096 8.5013C12.5949 8.50784 12.4836 8.54215 12.3852 8.60127L1.76019 14.9763C1.6275 15.0561 1.5246 15.1771 1.46725 15.3209C1.4099 15.4648 1.40126 15.6234 1.44263 15.7726C1.48401 15.9218 1.57313 16.0533 1.69637 16.1471C1.8196 16.2408 1.97015 16.2916 2.12498 16.2916Z" fill="#008C4B"/>
<path d="M31.875 28.3333V12.7499C31.875 12.3742 31.7257 12.0139 31.46 11.7482C31.1944 11.4825 30.834 11.3333 30.4583 11.3333H26.9166C26.5409 11.3333 26.1806 11.4825 25.9149 11.7482C25.6492 12.0139 25.5 12.3742 25.5 12.7499V28.3333H24.0833V17.7083C24.0833 17.3325 23.934 16.9722 23.6684 16.7065C23.4027 16.4408 23.0424 16.2916 22.6666 16.2916H19.125C18.7492 16.2916 18.3889 16.4408 18.1232 16.7065C17.8575 16.9722 17.7083 17.3325 17.7083 17.7083V28.3333H16.2916V15.5833C16.2916 15.2075 16.1424 14.8472 15.8767 14.5815C15.611 14.3158 15.2507 14.1666 14.875 14.1666H11.3333C10.9576 14.1666 10.5972 14.3158 10.3316 14.5815C10.0659 14.8472 9.91663 15.2075 9.91663 15.5833V28.3333H8.49996V19.8333C8.49996 19.4575 8.3507 19.0972 8.08503 18.8315C7.81935 18.5658 7.45902 18.4166 7.08329 18.4166H3.54163C3.1659 18.4166 2.80557 18.5658 2.53989 18.8315C2.27421 19.0972 2.12496 19.4575 2.12496 19.8333V28.3333C1.9371 28.3333 1.75693 28.4079 1.62409 28.5407C1.49125 28.6736 1.41663 28.8537 1.41663 29.0416C1.41663 29.2294 1.49125 29.4096 1.62409 29.5425C1.75693 29.6753 1.9371 29.7499 2.12496 29.7499H31.875C32.0628 29.7499 32.243 29.6753 32.3758 29.5425C32.5087 29.4096 32.5833 29.2294 32.5833 29.0416C32.5833 28.8537 32.5087 28.6736 32.3758 28.5407C32.243 28.4079 32.0628 28.3333 31.875 28.3333ZM26.9166 12.7499H30.4583V28.3333H26.9166V12.7499ZM19.125 17.7083H22.6666V28.3333H19.125V17.7083ZM11.3333 15.5833H14.875V28.3333H11.3333V15.5833ZM3.54163 19.8333H7.08329V28.3333H3.54163V19.8333Z" fill="#008C4B"/>
</svg>
