<svg width="40" height="40" viewBox="0 0 40 40" fill="none" xmlns="http://www.w3.org/2000/svg">
<path d="M35.5716 22.2046C35.0932 25.58 33.531 28.7086 31.1204 31.1192C28.7098 33.5298 25.5812 35.0919 22.2058 35.5703C22.1887 35.5728 22.1731 35.5813 22.1617 35.5942C22.1502 35.6072 22.1437 35.6237 22.1433 35.641V36.6049C22.1433 37.1733 21.9175 37.7184 21.5156 38.1204C21.1137 38.5223 20.5686 38.7481 20.0002 38.7481C19.4318 38.7481 18.8867 38.5223 18.4847 38.1204C18.0828 37.7184 17.857 37.1733 17.857 36.6049V35.6412C17.8569 35.6238 17.8505 35.6071 17.8391 35.5941C17.8276 35.5811 17.8117 35.5727 17.7945 35.5705C14.4191 35.0922 11.2904 33.53 8.8797 31.1194C6.46901 28.7088 4.90683 25.5801 4.42844 22.2046C4.42607 22.1877 4.41763 22.1723 4.40469 22.1611C4.39176 22.15 4.37521 22.1439 4.35813 22.1441H3.39384C2.82517 22.1441 2.2798 21.9182 1.8777 21.5161C1.47559 21.114 1.24969 20.5686 1.24969 19.9999C1.24969 19.4313 1.47559 18.8859 1.8777 18.4838C2.2798 18.0817 2.82517 17.8558 3.39384 17.8558H4.35774C4.37481 17.856 4.39137 17.8499 4.4043 17.8388C4.41724 17.8276 4.42568 17.8122 4.42805 17.7953C4.9065 14.4198 6.46872 11.2912 8.87943 8.88059C11.2901 6.46999 14.4188 4.90792 17.7943 4.42963C17.8114 4.42708 17.827 4.4186 17.8384 4.40567C17.8499 4.39273 17.8564 4.37619 17.8568 4.35893V3.39471C17.8568 3.11327 17.9122 2.83459 18.0199 2.57457C18.1276 2.31456 18.2855 2.0783 18.4845 1.87929C18.6835 1.68029 18.9198 1.52242 19.1798 1.41472C19.4398 1.30702 19.7185 1.25159 19.9999 1.25159C20.2814 1.25159 20.5601 1.30702 20.8201 1.41472C21.0801 1.52242 21.3163 1.68029 21.5153 1.87929C21.7144 2.0783 21.8722 2.31456 21.9799 2.57457C22.0876 2.83459 22.1431 3.11327 22.1431 3.39471V4.3587C22.1432 4.37605 22.1495 4.39277 22.161 4.40578C22.1725 4.41878 22.1883 4.42717 22.2056 4.4294C25.581 4.90775 28.7097 6.46987 31.1203 8.88052C33.531 11.2912 35.0932 14.4198 35.5716 17.7953C35.5739 17.8122 35.5824 17.8278 35.5955 17.8389C35.6085 17.8501 35.6251 17.8561 35.6423 17.8558H36.6063C37.1749 17.8558 37.7203 18.0817 38.1224 18.4838C38.5245 18.8859 38.7504 19.4313 38.7504 19.9999C38.7504 20.5686 38.5245 21.114 38.1224 21.5161C37.7203 21.9182 37.1749 22.1441 36.6063 22.1441H35.6423C35.6251 22.1438 35.6085 22.1498 35.5955 22.161C35.5824 22.1721 35.5739 22.1877 35.5716 22.2046ZM17.1152 19.7918C17.0687 19.746 17.0316 19.6915 17.0061 19.6314C16.9806 19.5713 16.9671 19.5067 16.9666 19.4414C16.966 19.3761 16.9783 19.3113 17.0028 19.2508C17.0273 19.1902 17.0634 19.1351 17.1092 19.0885C17.155 19.042 17.2095 19.0049 17.2696 18.9794C17.3298 18.9539 17.3943 18.9404 17.4596 18.9399C17.5249 18.9393 17.5897 18.9516 17.6503 18.9761C17.7108 19.0006 17.7659 19.0367 17.8125 19.0825L19.8495 21.0771C19.8561 21.0839 19.8641 21.0892 19.8728 21.0928C19.8816 21.0964 19.891 21.0982 19.9005 21.098C19.91 21.0978 19.9193 21.0957 19.9279 21.0917C19.9365 21.0878 19.9442 21.0821 19.9506 21.075L25.1641 15.5319C25.2086 15.4834 25.2622 15.4442 25.322 15.4165C25.3817 15.3889 25.4464 15.3734 25.5122 15.3709C25.578 15.3685 25.6436 15.3791 25.7052 15.4022C25.7669 15.4252 25.8234 15.4603 25.8714 15.5054C25.9194 15.5504 25.9579 15.6046 25.9849 15.6646C26.0118 15.7247 26.0265 15.7895 26.0282 15.8553C26.0299 15.9211 26.0186 15.9866 25.9948 16.048C25.971 16.1094 25.9352 16.1654 25.8896 16.2129L20.2779 22.1804C20.2327 22.229 20.1782 22.2681 20.1176 22.2952C20.057 22.3223 19.9916 22.337 19.9252 22.3383C19.8589 22.3396 19.7929 22.3276 19.7313 22.3029C19.6697 22.2782 19.6137 22.2413 19.5666 22.1946L17.1152 19.7918ZM34.5611 17.775C34.0856 14.6736 32.6329 11.8048 30.4144 9.58591C28.1959 7.36705 25.3273 5.9139 22.2259 5.43784C22.2157 5.43633 22.2053 5.43703 22.1954 5.43988C22.1855 5.44273 22.1763 5.44767 22.1685 5.45437C22.1606 5.46107 22.1543 5.46937 22.1499 5.47871C22.1456 5.48805 22.1432 5.49823 22.1431 5.50854V8.62065C22.1431 8.6372 22.149 8.65323 22.1597 8.66582C22.1705 8.67841 22.1854 8.68675 22.2017 8.68932C24.454 9.12915 26.5239 10.231 28.1464 11.8539C29.7689 13.4768 30.8703 15.5468 31.3096 17.7992C31.3131 17.8154 31.3221 17.8298 31.3349 17.8401C31.3478 17.8504 31.3638 17.8559 31.3803 17.8558H34.4904C34.5007 17.8561 34.5109 17.8541 34.5203 17.8501C34.5297 17.846 34.5381 17.8398 34.5448 17.8321C34.5516 17.8244 34.5565 17.8153 34.5594 17.8054C34.5622 17.7955 34.5628 17.7852 34.5611 17.775ZM30.2871 17.7689C29.857 15.7955 28.869 13.9871 27.4406 12.5591C26.0122 11.131 24.2036 10.1434 22.23 9.71385C22.2196 9.71154 22.2089 9.71157 22.1986 9.71393C22.1882 9.7163 22.1785 9.72094 22.1702 9.72753C22.1619 9.73412 22.1551 9.74248 22.1504 9.75201C22.1458 9.76154 22.1433 9.77199 22.1431 9.7826V10.1464C22.1431 10.7147 21.9173 11.2599 21.5154 11.6618C21.1135 12.0637 20.5684 12.2895 20 12.2895C19.4316 12.2895 18.8865 12.0637 18.4846 11.6618C18.0827 11.2599 17.8569 10.7147 17.8569 10.1464V9.7826C17.8568 9.77199 17.8543 9.76154 17.8496 9.75201C17.8449 9.74248 17.8381 9.73412 17.8298 9.72753C17.8215 9.72094 17.8118 9.7163 17.8015 9.71393C17.7911 9.71157 17.7804 9.71154 17.77 9.71385C15.7964 10.1434 13.9878 11.131 12.5594 12.559C11.131 13.9871 10.143 15.7954 9.71298 17.7689C9.71087 17.7794 9.71111 17.7903 9.71368 17.8007C9.71625 17.811 9.72108 17.8207 9.72784 17.829C9.7346 17.8373 9.74311 17.8441 9.75276 17.8487C9.76242 17.8533 9.77297 17.8557 9.78368 17.8558H10.1474C10.7161 17.8558 11.2615 18.0817 11.6636 18.4838C12.0657 18.8859 12.2916 19.4313 12.2916 19.9999C12.2916 20.5686 12.0657 21.114 11.6636 21.5161C11.2615 21.9182 10.7161 22.1441 10.1474 22.1441H9.78368C9.77297 22.1442 9.76242 22.1466 9.75276 22.1512C9.74311 22.1558 9.7346 22.1625 9.72784 22.1709C9.72108 22.1792 9.71625 22.1888 9.71368 22.1992C9.71111 22.2096 9.71087 22.2205 9.71298 22.231C10.1431 24.2044 11.1311 26.0127 12.5595 27.4406C13.9879 28.8686 15.7965 29.8561 17.77 30.2857C17.7804 30.288 17.7911 30.2879 17.8015 30.2856C17.8118 30.2832 17.8215 30.2786 17.8298 30.272C17.8381 30.2654 17.8449 30.257 17.8496 30.2475C17.8543 30.238 17.8568 30.2275 17.8569 30.2169V29.8531C17.8569 29.2848 18.0827 28.7396 18.4846 28.3377C18.8865 27.9358 19.4316 27.71 20 27.71C20.5684 27.71 21.1135 27.9358 21.5154 28.3377C21.9173 28.7396 22.1431 29.2848 22.1431 29.8531V30.2169C22.1433 30.2275 22.1458 30.238 22.1504 30.2475C22.1551 30.257 22.1619 30.2654 22.1702 30.272C22.1785 30.2786 22.1882 30.2832 22.1986 30.2856C22.2089 30.2879 22.2196 30.288 22.23 30.2857C24.2035 29.8561 26.0121 28.8686 27.4405 27.4406C28.8689 26.0126 29.857 24.2044 30.2871 22.231C30.2892 22.2205 30.289 22.2096 30.2864 22.1992C30.2838 22.1888 30.279 22.1792 30.2722 22.1709C30.2654 22.1625 30.2569 22.1558 30.2473 22.1512C30.2376 22.1466 30.227 22.1442 30.2163 22.1441H29.8526C29.2839 22.1441 28.7386 21.9182 28.3364 21.5161C27.9343 21.114 27.7084 20.5686 27.7084 19.9999C27.7084 19.4313 27.9343 18.8859 28.3364 18.4838C28.7386 18.0817 29.2839 17.8558 29.8526 17.8558H30.2163C30.227 17.8557 30.2376 17.8533 30.2473 17.8487C30.2569 17.844 30.2654 17.8373 30.2722 17.829C30.279 17.8207 30.2838 17.811 30.2864 17.8007C30.289 17.7903 30.2892 17.7794 30.2871 17.7689ZM31.3096 22.2006C30.8703 24.453 29.7689 26.5231 28.1464 28.146C26.5239 29.7689 24.454 30.8707 22.2017 31.3106C22.1854 31.3131 22.1705 31.3215 22.1597 31.3341C22.149 31.3467 22.1431 31.3627 22.1431 31.3792V34.4914C22.1433 34.5016 22.1457 34.5118 22.1501 34.5211C22.1544 34.5304 22.1608 34.5386 22.1686 34.5453C22.1765 34.5519 22.1856 34.5568 22.1955 34.5597C22.2054 34.5625 22.2158 34.5632 22.2259 34.5617C25.3273 34.0856 28.1959 32.6325 30.4144 30.4136C32.6329 28.1947 34.0856 25.3259 34.5611 22.2245C34.5628 22.2144 34.5622 22.204 34.5594 22.1941C34.5565 22.1842 34.5516 22.1751 34.5448 22.1674C34.5381 22.1597 34.5297 22.1536 34.5203 22.1495C34.5109 22.1454 34.5007 22.1434 34.4904 22.1437H31.3803C31.3638 22.1436 31.3478 22.1491 31.3349 22.1594C31.3221 22.1697 31.3131 22.1841 31.3096 22.2003V22.2006ZM37.752 19.9999C37.7506 19.6965 37.6294 19.4059 37.4148 19.1914C37.2003 18.9768 36.9097 18.8556 36.6063 18.8542H29.8526C28.8502 18.8542 28.3148 20.0807 29.0442 20.8083C29.1502 20.9149 29.2761 20.9996 29.4148 21.0575C29.5535 21.1154 29.7023 21.1454 29.8526 21.1457H36.6063C36.9097 21.1443 37.2003 21.0231 37.4148 20.8085C37.6294 20.594 37.7506 20.3034 37.752 19.9999ZM17.8569 34.4914V31.3792C17.8569 31.3627 17.851 31.3467 17.8403 31.3341C17.8295 31.3215 17.8146 31.3131 17.7983 31.3106C15.546 30.8707 13.4761 29.7689 11.8536 28.146C10.2311 26.5231 9.12972 24.453 8.6904 22.2006C8.6869 22.1845 8.67796 22.1701 8.66509 22.1598C8.65221 22.1495 8.63618 22.144 8.61969 22.1441H5.50962C5.49936 22.1438 5.48916 22.1457 5.47975 22.1498C5.47034 22.1539 5.46196 22.1601 5.4552 22.1678C5.44844 22.1755 5.44348 22.1846 5.44066 22.1945C5.43785 22.2044 5.43725 22.2147 5.43891 22.2249C5.91438 25.3264 7.36704 28.1953 9.58554 30.4142C11.804 32.6332 14.6727 34.0864 17.7741 34.5624C17.7842 34.5639 17.7946 34.5633 17.8045 34.5604C17.8144 34.5576 17.8236 34.5527 17.8314 34.546C17.8392 34.5394 17.8456 34.5311 17.85 34.5218C17.8544 34.5125 17.8567 34.5024 17.8569 34.4921V34.4914ZM19.999 37.751C20.3027 37.7503 20.5937 37.6293 20.8084 37.4146C21.0231 37.1999 21.1441 36.9088 21.1448 36.6052V29.8535C21.1448 28.8492 19.9202 28.3156 19.1906 29.0432C19.0841 29.1495 18.9996 29.2759 18.9421 29.4149C18.8845 29.554 18.855 29.703 18.8552 29.8535V36.6052C18.8559 36.9085 18.9766 37.1992 19.1909 37.4139C19.4052 37.6285 19.6957 37.7497 19.999 37.751ZM5.50962 17.8558H8.61969C8.63618 17.8559 8.65221 17.8504 8.66509 17.8401C8.67796 17.8298 8.6869 17.8154 8.6904 17.7992C9.12972 15.5468 10.2311 13.4768 11.8536 11.8539C13.4761 10.231 15.546 9.12915 17.7983 8.68932C17.8146 8.68675 17.8295 8.67841 17.8403 8.66582C17.851 8.65323 17.8569 8.6372 17.8569 8.62065V5.50854C17.8568 5.49823 17.8545 5.48805 17.8501 5.47871C17.8457 5.46937 17.8394 5.46107 17.8315 5.45437C17.8237 5.44767 17.8145 5.44273 17.8046 5.43988C17.7947 5.43703 17.7843 5.43633 17.7741 5.43784C14.6727 5.9139 11.8041 7.36705 9.58564 9.58591C7.36715 11.8048 5.91446 14.6736 5.43891 17.775C5.43725 17.7852 5.43785 17.7955 5.44066 17.8054C5.44348 17.8153 5.44844 17.8244 5.4552 17.8321C5.46196 17.8398 5.47034 17.846 5.47975 17.8501C5.48916 17.8541 5.49936 17.8561 5.50962 17.8558ZM2.24798 19.9999C2.24945 20.3034 2.37066 20.594 2.58523 20.8085C2.7998 21.0231 3.0904 21.1443 3.39384 21.1457H10.1474C11.1498 21.1457 11.6852 19.9192 10.9558 19.1916C10.8498 19.085 10.7239 19.0003 10.5852 18.9424C10.4465 18.8845 10.2977 18.8545 10.1474 18.8542H3.39384C3.0904 18.8556 2.7998 18.9768 2.58523 19.1914C2.37066 19.4059 2.24945 19.6965 2.24798 19.9999ZM20.001 2.24893C19.6974 2.24963 19.4063 2.37057 19.1916 2.5853C18.9769 2.80002 18.8559 3.09105 18.8552 3.39471V10.1464C18.8552 11.1507 20.0798 11.6842 20.8094 10.9567C20.9162 10.8505 21.001 10.7242 21.0589 10.5851C21.1168 10.4461 21.1467 10.297 21.1468 10.1464V3.39471C21.1457 3.09118 21.0246 2.8004 20.81 2.58577C20.5953 2.37114 20.3046 2.25006 20.001 2.24893ZM24.8895 19.0764C24.877 19.012 24.8773 18.9457 24.8906 18.8814C24.9038 18.8171 24.9296 18.7561 24.9666 18.7018C25.0035 18.6475 25.0508 18.6011 25.1058 18.5652C25.1608 18.5293 25.2223 18.5047 25.2868 18.4927C25.3514 18.4806 25.4177 18.4815 25.4819 18.4953C25.546 18.509 25.6069 18.5353 25.6609 18.5727C25.7148 18.61 25.7609 18.6577 25.7964 18.713C25.8318 18.7682 25.856 18.8299 25.8675 18.8946C26.1208 20.2401 25.9036 21.6319 25.2524 22.8364C24.6011 24.0408 23.5555 24.9846 22.2908 25.5094C21.0261 26.0342 19.6194 26.108 18.3068 25.7185C16.9941 25.3291 15.8553 24.5 15.0815 23.3703C14.3077 22.2407 13.946 20.8794 14.057 19.5146C14.1681 18.1499 14.7451 16.8649 15.6913 15.8752C16.6375 14.8855 17.8953 14.2514 19.2537 14.0792C20.612 13.9071 21.9883 14.2073 23.1515 14.9296C23.2629 14.9997 23.3421 15.111 23.3717 15.2393C23.4014 15.3675 23.379 15.5023 23.3096 15.6141C23.2402 15.726 23.1294 15.8058 23.0013 15.8362C22.8733 15.8667 22.7384 15.8451 22.6261 15.7764C21.8465 15.2919 20.948 15.0326 20.0301 15.0273C19.1122 15.0221 18.2108 15.271 17.4257 15.7465C16.6406 16.2221 16.0025 16.9057 15.582 17.7216C15.1616 18.5376 14.9752 19.454 15.0436 20.3693C15.1119 21.2847 15.4323 22.1632 15.9693 22.9077C16.5063 23.6521 17.2389 24.2333 18.086 24.587C18.933 24.9407 19.8614 25.0529 20.7683 24.9114C21.6752 24.7698 22.5253 24.3799 23.2242 23.7849C23.8919 23.2163 24.3975 22.4814 24.6899 21.6546C24.9823 20.8278 25.0512 19.9384 24.8895 19.0764Z" fill="#008C4B"/>
</svg>
