<svg width="407" height="180" viewBox="0 0 407 180" fill="none" xmlns="http://www.w3.org/2000/svg">
<path d="M0 11.2C0 7.27963 0 5.31945 0.762954 3.82207C1.43407 2.50493 2.50493 1.43407 3.82207 0.762954C5.31945 0 7.27963 0 11.2 0H395.8C399.72 0 401.681 0 403.178 0.762954C404.495 1.43407 405.566 2.50493 406.237 3.82207C407 5.31945 407 7.27963 407 11.2V168.8C407 172.72 407 174.681 406.237 176.178C405.566 177.495 404.495 178.566 403.178 179.237C401.681 180 399.72 180 395.8 180H11.2C7.27964 180 5.31945 180 3.82207 179.237C2.50493 178.566 1.43407 177.495 0.762954 176.178C0 174.681 0 172.72 0 168.8V11.2Z" fill="#008C4B" fill-opacity="0.05"/>
</svg>
