<svg width="40" height="40" viewBox="0 0 40 40" fill="none" xmlns="http://www.w3.org/2000/svg">
<path fill-rule="evenodd" clip-rule="evenodd" d="M34.6832 19.3835C34.3433 19.4409 34.1138 19.7632 34.1711 20.1038C34.3066 20.9045 34.375 21.7102 34.375 22.5C34.375 26.9053 32.4115 30.8817 29.2479 33.5293C28.6954 29.9419 26.1484 27.0646 22.7662 26.0349C24.1109 25.1379 25 23.6096 25 21.875C25 19.1174 22.757 16.875 20 16.875C17.243 16.875 15 19.1174 15 21.875C15 23.6096 15.8891 25.1379 17.2338 26.0349C13.8516 27.0646 11.3046 29.9419 10.7521 33.5293C7.5885 30.8817 5.625 26.9053 5.625 22.5C5.625 21.7102 5.69336 20.9045 5.82886 20.1038C5.88623 19.7632 5.65674 19.4409 5.31677 19.3835C4.96887 19.325 4.65393 19.5557 4.59595 19.8962C4.44946 20.7642 4.375 21.6406 4.375 22.5C4.375 30.1758 9.85718 36.6541 17.4103 37.9041C17.4445 37.9102 17.4792 37.9126 17.5128 37.9126C17.8131 37.9126 18.078 37.6953 18.1287 37.3901C18.1854 37.0496 17.9547 36.7273 17.6141 36.6711C15.508 36.3226 13.5813 35.5263 11.9128 34.3967C12.2143 30.1553 15.7001 26.875 20 26.875C24.2999 26.875 27.7857 30.1553 28.0872 34.3967C26.4187 35.5263 24.492 36.3226 22.3859 36.6711C22.0453 36.7273 21.8146 37.0496 21.8713 37.3901C21.922 37.6953 22.1869 37.9126 22.4872 37.9126C22.5208 37.9126 22.5555 37.9102 22.5897 37.9041C30.1428 36.6541 35.625 30.1758 35.625 22.5C35.625 21.6406 35.5505 20.7642 35.4041 19.8962C35.3461 19.5557 35.0275 19.3237 34.6832 19.3835ZM16.25 21.875C16.25 19.8071 17.9321 18.125 20 18.125C22.0679 18.125 23.75 19.8071 23.75 21.875C23.75 23.9429 22.0679 25.625 20 25.625C17.9321 25.625 16.25 23.9429 16.25 21.875Z" fill="#008C4B"/>
<path fill-rule="evenodd" clip-rule="evenodd" d="M26.8445 6.84814C26.7706 6.62109 26.5753 6.4563 26.3397 6.42212L22.3462 5.84229L20.5603 2.2229C20.3503 1.7981 19.6496 1.7981 19.4397 2.2229L17.6538 5.84229L13.6603 6.42212C13.4247 6.4563 13.2293 6.62109 13.1555 6.84814C13.0822 7.07397 13.1433 7.323 13.3136 7.48901L16.2036 10.3052L15.5212 14.2822C15.4809 14.5178 15.5774 14.7546 15.7696 14.8938C15.9631 15.0342 16.2176 15.0549 16.4282 14.9414L20 13.0627L23.5717 14.9414C23.6633 14.9902 23.7634 15.0134 23.8629 15.0134C23.9923 15.0134 24.1211 14.9731 24.2303 14.8938C24.4226 14.7546 24.519 14.5178 24.4787 14.2822L23.7964 10.3052L26.6864 7.48901C26.8567 7.323 26.9177 7.07397 26.8445 6.84814ZM22.6886 9.63867C22.5415 9.78271 22.4743 9.98901 22.5091 10.1929L23.0328 13.2458L20.2911 11.8042C20.1996 11.7566 20.1001 11.7322 20 11.7322C19.8999 11.7322 19.8004 11.7566 19.7088 11.8042L16.9671 13.2458L17.4908 10.1929C17.5256 9.98901 17.4585 9.78271 17.3114 9.63867L15.0934 7.47803L18.1585 7.03247C18.3624 7.00195 18.5382 6.875 18.6291 6.69067L20 3.91235L21.3708 6.69067C21.4618 6.875 21.6375 7.00195 21.8414 7.03247L24.9066 7.47803L22.6886 9.63867Z" fill="#008C4B"/>
<path fill-rule="evenodd" clip-rule="evenodd" d="M5.04392 16.9043C5.00364 17.1399 5.10007 17.3767 5.29233 17.5159C5.48642 17.6562 5.74155 17.6758 5.9509 17.5635L8.74997 16.0913L11.549 17.5635C11.6406 17.6123 11.7407 17.6355 11.8402 17.6355C11.9696 17.6355 12.0984 17.5952 12.2076 17.5159C12.3999 17.3767 12.4963 17.1399 12.456 16.9043L11.9214 13.7878L14.1864 11.5808C14.3567 11.4148 14.4177 11.1658 14.3445 10.9399C14.2706 10.7129 14.0753 10.5481 13.8397 10.5139L10.7098 10.0598L9.31028 7.2229C9.10032 6.7981 8.39963 6.7981 8.18967 7.2229L6.79013 10.0598L3.66025 10.5139C3.42466 10.5481 3.22934 10.7129 3.15549 10.9399C3.08225 11.1658 3.14328 11.4148 3.31357 11.5808L5.57859 13.7878L5.04392 16.9043ZM5.09336 11.5698L7.2949 11.25C7.49875 11.2195 7.67453 11.0925 7.76548 10.9082L8.74997 8.91235L9.73447 10.9082C9.82541 11.0925 10.0012 11.2195 10.2051 11.25L12.4066 11.5698L10.8136 13.1213C10.6665 13.2654 10.5993 13.4717 10.6341 13.6755L11.0101 15.8679L9.04111 14.8328C8.94956 14.7852 8.85007 14.7607 8.74997 14.7607C8.64988 14.7607 8.55039 14.7852 8.45884 14.8328L6.48984 15.8679L6.86582 13.6755C6.90061 13.4717 6.83347 13.2654 6.68637 13.1213L5.09336 11.5698Z" fill="#008C4B"/>
<path fill-rule="evenodd" clip-rule="evenodd" d="M36.3397 10.5139L33.2098 10.0598L31.8103 7.2229C31.6003 6.7981 30.8996 6.7981 30.6897 7.2229L29.2901 10.0598L26.1603 10.5139C25.9247 10.5481 25.7293 10.7129 25.6555 10.9399C25.5822 11.1658 25.6433 11.4148 25.8136 11.5808L28.0786 13.7878L27.5439 16.9043C27.5036 17.1399 27.6001 17.3767 27.7923 17.5159C27.9858 17.6562 28.2403 17.6758 28.4509 17.5635L31.25 16.0913L34.049 17.5635C34.1406 17.6123 34.2407 17.6355 34.3402 17.6355C34.4696 17.6355 34.5984 17.5952 34.7076 17.5159C34.8999 17.3767 34.9963 17.1399 34.956 16.9043L34.4214 13.7878L36.6864 11.5808C36.8567 11.4148 36.9177 11.1658 36.8445 10.9399C36.7706 10.7129 36.5753 10.5481 36.3397 10.5139ZM33.3136 13.1213C33.1665 13.2654 33.0993 13.4717 33.1341 13.6755L33.5101 15.8679L31.5411 14.8328C31.4496 14.7852 31.3501 14.7607 31.25 14.7607C31.1499 14.7607 31.0504 14.7852 30.9588 14.8328L28.9898 15.8679L29.3658 13.6755C29.4006 13.4717 29.3335 13.2654 29.1864 13.1213L27.5934 11.5698L29.7949 11.25C29.9988 11.2195 30.1745 11.0925 30.2655 10.9082L31.25 8.91235L32.2345 10.9082C32.3254 11.0925 32.5012 11.2195 32.7051 11.25L34.9066 11.5698L33.3136 13.1213Z" fill="#008C4B"/>
<path d="M20 38.125C20.3452 38.125 20.625 37.8452 20.625 37.5C20.625 37.1548 20.3452 36.875 20 36.875C19.6548 36.875 19.375 37.1548 19.375 37.5C19.375 37.8452 19.6548 38.125 20 38.125Z" fill="#008C4B"/>
</svg>
